<svg width="91" height="84" viewBox="0 0 91 84" fill="none" xmlns="http://www.w3.org/2000/svg">
<path d="M9.74749 78.6132C11.4674 78.6132 12.8617 77.2189 12.8617 75.499C12.8617 73.779 11.4674 72.3848 9.74749 72.3848C8.02757 72.3848 6.6333 73.779 6.6333 75.499C6.6333 77.2189 8.02757 78.6132 9.74749 78.6132Z" fill="#34B715"/>
<path d="M19.5739 83.9998C20.7049 83.9998 21.6218 83.0829 21.6218 81.9518C21.6218 80.8207 20.7049 79.9038 19.5739 79.9038C18.4428 79.9038 17.5259 80.8207 17.5259 81.9518C17.5259 83.0829 18.4428 83.9998 19.5739 83.9998Z" fill="#34B715"/>
<path d="M3.40701 19.0543C5.16191 19.0543 6.58453 17.6316 6.58453 15.8767C6.58453 14.1218 5.16191 12.6992 3.40701 12.6992C1.65212 12.6992 0.229492 14.1218 0.229492 15.8767C0.229492 17.6316 1.65212 19.0543 3.40701 19.0543Z" fill="#34B715"/>
<path d="M10.6489 10.0965C11.8151 10.0965 12.7606 9.15107 12.7606 7.98479C12.7606 6.81851 11.8151 5.87305 10.6489 5.87305C9.48257 5.87305 8.53711 6.81851 8.53711 7.98479C8.53711 9.15107 9.48257 10.0965 10.6489 10.0965Z" fill="#34B715"/>
<path d="M87.675 17.6937C89.0747 17.6937 90.2093 16.559 90.2093 15.1593C90.2093 13.7597 89.0747 12.625 87.675 12.625C86.2753 12.625 85.1406 13.7597 85.1406 15.1593C85.1406 16.559 86.2753 17.6937 87.675 17.6937Z" fill="#34B715"/>
<path d="M84.1172 7.41294C85.482 6.04822 85.4819 3.83557 84.1172 2.47085C82.7525 1.10613 80.5399 1.10613 79.1751 2.47085C77.8104 3.83557 77.8104 6.04822 79.1751 7.41294C80.5399 8.77766 82.7525 8.77765 84.1172 7.41294Z" fill="#34B715"/>
<path d="M86.0595 70.5605C86.7867 69.8332 86.7867 68.6541 86.0595 67.9268C85.3322 67.1995 84.153 67.1995 83.4257 67.9268C82.6985 68.6541 82.6985 69.8332 83.4257 70.5605C84.153 71.2878 85.3322 71.2878 86.0595 70.5605Z" fill="#34B715"/>
<path d="M75.0378 81.1462C76.1624 80.0216 76.1624 78.1982 75.0378 77.0735C73.9131 75.9489 72.0897 75.9489 70.9651 77.0735C69.8404 78.1982 69.8404 80.0216 70.9651 81.1462C72.0897 82.2709 73.9131 82.2709 75.0378 81.1462Z" fill="#34B715"/>
<path d="M89.2229 62.1313C90.0777 61.2765 90.0777 59.8905 89.2229 59.0357C88.3681 58.1809 86.9821 58.1809 86.1273 59.0357C85.2725 59.8905 85.2725 61.2765 86.1273 62.1313C86.9821 62.9861 88.3681 62.9861 89.2229 62.1313Z" fill="#34B715"/>
<path d="M45.6371 80.5461C67.7688 80.5461 85.7102 62.6048 85.7102 40.473C85.7102 18.3412 67.7688 0.399902 45.6371 0.399902C23.5053 0.399902 5.56396 18.3412 5.56396 40.473C5.56396 62.6048 23.5053 80.5461 45.6371 80.5461Z" fill="#34B715"/>
<g style="mix-blend-mode:multiply" opacity="0.6">
<path d="M45.6372 76.9888C65.8042 76.9888 82.1528 60.6402 82.1528 40.4731C82.1528 20.3061 65.8042 3.95752 45.6372 3.95752C25.4702 3.95752 9.12158 20.3061 9.12158 40.4731C9.12158 60.6402 25.4702 76.9888 45.6372 76.9888Z" fill="white"/>
<path d="M45.6374 76.8667C65.7369 76.8667 82.0307 60.5728 82.0307 40.4734C82.0307 20.3739 65.7369 4.08008 45.6374 4.08008C25.538 4.08008 9.24414 20.3739 9.24414 40.4734C9.24414 60.5728 25.538 76.8667 45.6374 76.8667Z" fill="#FDFEFD"/>
<path d="M45.6371 76.744C65.669 76.744 81.9081 60.505 81.9081 40.4731C81.9081 20.4412 65.669 4.20215 45.6371 4.20215C25.6053 4.20215 9.36621 20.4412 9.36621 40.4731C9.36621 60.505 25.6053 76.744 45.6371 76.744Z" fill="#FCFDFB"/>
<path d="M45.6374 76.6219C65.6017 76.6219 81.786 60.4376 81.786 40.4733C81.786 20.509 65.6017 4.32471 45.6374 4.32471C25.673 4.32471 9.48877 20.509 9.48877 40.4733C9.48877 60.4376 25.673 76.6219 45.6374 76.6219Z" fill="#FAFBF9"/>
<path d="M45.6371 76.4993C65.5338 76.4993 81.6633 60.3698 81.6633 40.473C81.6633 20.5763 65.5338 4.44678 45.6371 4.44678C25.7403 4.44678 9.61084 20.5763 9.61084 40.473C9.61084 60.3698 25.7403 76.4993 45.6371 76.4993Z" fill="#F9FAF7"/>
<path d="M45.6372 76.3775C65.4667 76.3775 81.5416 60.3026 81.5416 40.4732C81.5416 20.6438 65.4667 4.56885 45.6372 4.56885C25.8078 4.56885 9.73291 20.6438 9.73291 40.4732C9.73291 60.3026 25.8078 76.3775 45.6372 76.3775Z" fill="#F7F9F5"/>
<path d="M45.6375 76.2554C65.3993 76.2554 81.4195 60.2352 81.4195 40.4734C81.4195 20.7115 65.3993 4.69141 45.6375 4.69141C25.8756 4.69141 9.85547 20.7115 9.85547 40.4734C9.85547 60.2352 25.8756 76.2554 45.6375 76.2554Z" fill="#F6F8F3"/>
<path d="M45.6372 76.1328C65.3315 76.1328 81.2968 60.1674 81.2968 40.4731C81.2968 20.7788 65.3315 4.81348 45.6372 4.81348C25.9429 4.81348 9.97754 20.7788 9.97754 40.4731C9.97754 60.1674 25.9429 76.1328 45.6372 76.1328Z" fill="#F4F7F1"/>
<path d="M45.6374 76.0106C65.2641 76.0106 81.1747 60.1 81.1747 40.4733C81.1747 20.8466 65.2641 4.93604 45.6374 4.93604C26.0107 4.93604 10.1001 20.8466 10.1001 40.4733C10.1001 60.1 26.0107 76.0106 45.6374 76.0106Z" fill="#F3F6EF"/>
<path d="M45.6371 75.888C65.1963 75.888 81.0521 60.0322 81.0521 40.4731C81.0521 20.9139 65.1963 5.05811 45.6371 5.05811C26.078 5.05811 10.2222 20.9139 10.2222 40.4731C10.2222 60.0322 26.078 75.888 45.6371 75.888Z" fill="#F1F4ED"/>
<path d="M45.6373 75.7659C65.1289 75.7659 80.93 59.9649 80.93 40.4733C80.93 20.9817 65.1289 5.18066 45.6373 5.18066C26.1458 5.18066 10.3447 20.9817 10.3447 40.4733C10.3447 59.9649 26.1458 75.7659 45.6373 75.7659Z" fill="#F0F3EB"/>
<path d="M45.6371 75.6433C65.0611 75.6433 80.8073 59.897 80.8073 40.473C80.8073 21.049 65.0611 5.30273 45.6371 5.30273C26.2131 5.30273 10.4668 21.049 10.4668 40.473C10.4668 59.897 26.2131 75.6433 45.6371 75.6433Z" fill="#EEF2E9"/>
<path d="M45.6373 75.5211C64.9937 75.5211 80.6852 59.8296 80.6852 40.4732C80.6852 21.1168 64.9937 5.42529 45.6373 5.42529C26.2808 5.42529 10.5894 21.1168 10.5894 40.4732C10.5894 59.8296 26.2808 75.5211 45.6373 75.5211Z" fill="#EDF1E7"/>
<path d="M45.637 75.3985C64.9259 75.3985 80.5626 59.7618 80.5626 40.4729C80.5626 21.1841 64.9259 5.54736 45.637 5.54736C26.3481 5.54736 10.7114 21.1841 10.7114 40.4729C10.7114 59.7618 26.3481 75.3985 45.637 75.3985Z" fill="#EBF0E5"/>
<path d="M45.6372 75.2764C64.8585 75.2764 80.4405 59.6945 80.4405 40.4732C80.4405 21.2519 64.8585 5.66992 45.6372 5.66992C26.4159 5.66992 10.834 21.2519 10.834 40.4732C10.834 59.6945 26.4159 75.2764 45.6372 75.2764Z" fill="#EAEEE3"/>
<path d="M45.6374 75.1543C64.7912 75.1543 80.3183 59.6271 80.3183 40.4734C80.3183 21.3196 64.7912 5.79248 45.6374 5.79248C26.4837 5.79248 10.9565 21.3196 10.9565 40.4734C10.9565 59.6271 26.4837 75.1543 45.6374 75.1543Z" fill="#E8EDE1"/>
<path d="M45.6372 75.0316C64.7233 75.0316 80.1957 59.5592 80.1957 40.4731C80.1957 21.3869 64.7233 5.91455 45.6372 5.91455C26.551 5.91455 11.0786 21.3869 11.0786 40.4731C11.0786 59.5592 26.551 75.0316 45.6372 75.0316Z" fill="#E7ECDF"/>
<path d="M45.6374 74.9095C64.656 74.9095 80.0736 59.4919 80.0736 40.4733C80.0736 21.4547 64.656 6.03711 45.6374 6.03711C26.6188 6.03711 11.2012 21.4547 11.2012 40.4733C11.2012 59.4919 26.6188 74.9095 45.6374 74.9095Z" fill="#E5EBDD"/>
<path d="M45.6371 74.7869C64.5881 74.7869 79.951 59.424 79.951 40.473C79.951 21.522 64.5881 6.15918 45.6371 6.15918C26.6861 6.15918 11.3232 21.522 11.3232 40.473C11.3232 59.424 26.6861 74.7869 45.6371 74.7869Z" fill="#E4EADB"/>
<path d="M45.6373 74.6651C64.5209 74.6651 79.8292 59.3569 79.8292 40.4732C79.8292 21.5895 64.5209 6.28125 45.6373 6.28125C26.7536 6.28125 11.4453 21.5895 11.4453 40.4732C11.4453 59.3569 26.7536 74.6651 45.6373 74.6651Z" fill="#E2E8D9"/>
<path d="M45.6375 74.543C64.4536 74.543 79.7071 59.2895 79.7071 40.4734C79.7071 21.6573 64.4536 6.40381 45.6375 6.40381C26.8213 6.40381 11.5679 21.6573 11.5679 40.4734C11.5679 59.2895 26.8213 74.543 45.6375 74.543Z" fill="#E1E7D7"/>
<path d="M45.6372 74.4204C64.3857 74.4204 79.5844 59.2217 79.5844 40.4731C79.5844 21.7246 64.3857 6.52588 45.6372 6.52588C26.8886 6.52588 11.6899 21.7246 11.6899 40.4731C11.6899 59.2217 26.8886 74.4204 45.6372 74.4204Z" fill="#DFE6D5"/>
<path d="M45.6374 74.2982C64.3184 74.2982 79.4623 59.1543 79.4623 40.4733C79.4623 21.7924 64.3184 6.64844 45.6374 6.64844C26.9564 6.64844 11.8125 21.7924 11.8125 40.4733C11.8125 59.1543 26.9564 74.2982 45.6374 74.2982Z" fill="#DEE5D4"/>
<path d="M45.6371 74.1756C64.2505 74.1756 79.3397 59.0865 79.3397 40.4731C79.3397 21.8597 64.2505 6.77051 45.6371 6.77051C27.0237 6.77051 11.9346 21.8597 11.9346 40.4731C11.9346 59.0865 27.0237 74.1756 45.6371 74.1756Z" fill="#DCE4D2"/>
<path d="M45.6373 74.0535C64.1832 74.0535 79.2176 59.0191 79.2176 40.4733C79.2176 21.9274 64.1832 6.89307 45.6373 6.89307C27.0915 6.89307 12.0571 21.9274 12.0571 40.4733C12.0571 59.0191 27.0915 74.0535 45.6373 74.0535Z" fill="#DBE3D0"/>
<path d="M45.6371 73.9309C64.1153 73.9309 79.0949 58.9513 79.0949 40.473C79.0949 21.9947 64.1153 7.01514 45.6371 7.01514C27.1588 7.01514 12.1792 21.9947 12.1792 40.473C12.1792 58.9513 27.1588 73.9309 45.6371 73.9309Z" fill="#D9E1CE"/>
<path d="M45.6373 73.8088C64.048 73.8088 78.9728 58.8839 78.9728 40.4732C78.9728 22.0625 64.048 7.1377 45.6373 7.1377C27.2266 7.1377 12.3018 22.0625 12.3018 40.4732C12.3018 58.8839 27.2266 73.8088 45.6373 73.8088Z" fill="#D8E0CC"/>
<path d="M45.637 73.6861C63.9801 73.6861 78.8502 58.8161 78.8502 40.4729C78.8502 22.1298 63.9801 7.25977 45.637 7.25977C27.2939 7.25977 12.4238 22.1298 12.4238 40.4729C12.4238 58.8161 27.2939 73.6861 45.637 73.6861Z" fill="#D6DFCA"/>
<path d="M45.6372 73.564C63.9128 73.564 78.7281 58.7487 78.7281 40.4732C78.7281 22.1976 63.9128 7.38232 45.6372 7.38232C27.3617 7.38232 12.5464 22.1976 12.5464 40.4732C12.5464 58.7487 27.3617 73.564 45.6372 73.564Z" fill="#D5DEC8"/>
<path d="M45.6374 73.4419C63.8454 73.4419 78.6059 58.6814 78.6059 40.4734C78.6059 22.2654 63.8454 7.50488 45.6374 7.50488C27.4294 7.50488 12.6689 22.2654 12.6689 40.4734C12.6689 58.6814 27.4294 73.4419 45.6374 73.4419Z" fill="#D3DDC6"/>
<path d="M45.6372 73.3192C63.7776 73.3192 78.4833 58.6135 78.4833 40.4731C78.4833 22.3327 63.7776 7.62695 45.6372 7.62695C27.4967 7.62695 12.791 22.3327 12.791 40.4731C12.791 58.6135 27.4967 73.3192 45.6372 73.3192Z" fill="#D2DBC4"/>
<path d="M45.6374 73.1971C63.7102 73.1971 78.3612 58.5462 78.3612 40.4733C78.3612 22.4005 63.7102 7.74951 45.6374 7.74951C27.5645 7.74951 12.9136 22.4005 12.9136 40.4733C12.9136 58.5462 27.5645 73.1971 45.6374 73.1971Z" fill="#D0DAC2"/>
<path d="M45.6371 73.0745C63.6424 73.0745 78.2386 58.4783 78.2386 40.473C78.2386 22.4678 63.6424 7.87158 45.6371 7.87158C27.6318 7.87158 13.0356 22.4678 13.0356 40.473C13.0356 58.4783 27.6318 73.0745 45.6371 73.0745Z" fill="#CFD9C0"/>
<path d="M45.6373 72.9527C63.5752 72.9527 78.1168 58.4111 78.1168 40.4732C78.1168 22.5352 63.5752 7.99365 45.6373 7.99365C27.6993 7.99365 13.1577 22.5352 13.1577 40.4732C13.1577 58.4111 27.6993 72.9527 45.6373 72.9527Z" fill="#CDD8BE"/>
<path d="M45.637 72.8301C63.5074 72.8301 77.9942 58.3433 77.9942 40.4729C77.9942 22.6025 63.5074 8.11572 45.637 8.11572C27.7666 8.11572 13.2798 22.6025 13.2798 40.4729C13.2798 58.3433 27.7666 72.8301 45.637 72.8301Z" fill="#CCD7BC"/>
<path d="M45.6372 72.708C63.44 72.708 77.872 58.276 77.872 40.4731C77.872 22.6703 63.44 8.23828 45.6372 8.23828C27.8344 8.23828 13.4023 22.6703 13.4023 40.4731C13.4023 58.276 27.8344 72.708 45.6372 72.708Z" fill="#CAD5BA"/>
<path d="M45.6374 72.5858C63.3727 72.5858 77.7499 58.2086 77.7499 40.4733C77.7499 22.7381 63.3727 8.36084 45.6374 8.36084C27.9022 8.36084 13.5249 22.7381 13.5249 40.4733C13.5249 58.2086 27.9022 72.5858 45.6374 72.5858Z" fill="#C9D4B8"/>
<path d="M45.6371 72.4632C63.3048 72.4632 77.6273 58.1407 77.6273 40.4731C77.6273 22.8054 63.3048 8.48291 45.6371 8.48291C27.9695 8.48291 13.647 22.8054 13.647 40.4731C13.647 58.1407 27.9695 72.4632 45.6371 72.4632Z" fill="#C7D3B6"/>
<path d="M45.6373 72.3411C63.2375 72.3411 77.5052 58.0734 77.5052 40.4733C77.5052 22.8732 63.2375 8.60547 45.6373 8.60547C28.0372 8.60547 13.7695 22.8732 13.7695 40.4733C13.7695 58.0734 28.0372 72.3411 45.6373 72.3411Z" fill="#C6D2B4"/>
<path d="M45.6371 72.2185C63.1696 72.2185 77.3826 58.0056 77.3826 40.473C77.3826 22.9405 63.1696 8.72754 45.6371 8.72754C28.1045 8.72754 13.8916 22.9405 13.8916 40.473C13.8916 58.0056 28.1045 72.2185 45.6371 72.2185Z" fill="#C4D1B2"/>
<path d="M45.6373 72.0964C63.1023 72.0964 77.2604 57.9382 77.2604 40.4732C77.2604 23.0083 63.1023 8.8501 45.6373 8.8501C28.1723 8.8501 14.0142 23.0083 14.0142 40.4732C14.0142 57.9382 28.1723 72.0964 45.6373 72.0964Z" fill="#C3D0B0"/>
<path d="M45.637 71.9737C63.0344 71.9737 77.1378 57.8703 77.1378 40.4729C77.1378 23.0755 63.0344 8.97217 45.637 8.97217C28.2396 8.97217 14.1362 23.0755 14.1362 40.4729C14.1362 57.8703 28.2396 71.9737 45.637 71.9737Z" fill="#C1CEAE"/>
<path d="M45.6372 71.8516C62.9671 71.8516 77.0157 57.803 77.0157 40.4732C77.0157 23.1433 62.9671 9.09473 45.6372 9.09473C28.3074 9.09473 14.2588 23.1433 14.2588 40.4732C14.2588 57.803 28.3074 71.8516 45.6372 71.8516Z" fill="#C0CDAC"/>
<path d="M45.6374 71.7295C62.8997 71.7295 76.8935 57.7356 76.8935 40.4734C76.8935 23.2111 62.8997 9.21729 45.6374 9.21729C28.3752 9.21729 14.3813 23.2111 14.3813 40.4734C14.3813 57.7356 28.3752 71.7295 45.6374 71.7295Z" fill="#BECCAA"/>
<path d="M45.6372 71.6068C62.8319 71.6068 76.7709 57.6678 76.7709 40.4731C76.7709 23.2784 62.8319 9.33936 45.6372 9.33936C28.4425 9.33936 14.5034 23.2784 14.5034 40.4731C14.5034 57.6678 28.4425 71.6068 45.6372 71.6068Z" fill="#BCCBA8"/>
<path d="M45.6374 71.4847C62.7645 71.4847 76.6488 57.6004 76.6488 40.4733C76.6488 23.3462 62.7645 9.46191 45.6374 9.46191C28.5103 9.46191 14.626 23.3462 14.626 40.4733C14.626 57.6004 28.5103 71.4847 45.6374 71.4847Z" fill="#BBCAA6"/>
<path d="M45.6371 71.3621C62.6967 71.3621 76.5262 57.5326 76.5262 40.473C76.5262 23.4135 62.6967 9.58398 45.6371 9.58398C28.5775 9.58398 14.748 23.4135 14.748 40.473C14.748 57.5326 28.5775 71.3621 45.6371 71.3621Z" fill="#B9C8A4"/>
<path d="M45.6373 71.2403C62.6295 71.2403 76.4044 57.4654 76.4044 40.4732C76.4044 23.481 62.6295 9.70605 45.6373 9.70605C28.645 9.70605 14.8701 23.481 14.8701 40.4732C14.8701 57.4654 28.645 71.2403 45.6373 71.2403Z" fill="#B8C7A2"/>
<path d="M45.637 71.1177C62.5616 71.1177 76.2818 57.3976 76.2818 40.4729C76.2818 23.5483 62.5616 9.82812 45.637 9.82812C28.7123 9.82812 14.9922 23.5483 14.9922 40.4729C14.9922 57.3976 28.7123 71.1177 45.637 71.1177Z" fill="#B6C6A0"/>
<path d="M45.6372 70.9956C62.4943 70.9956 76.1597 57.3302 76.1597 40.4731C76.1597 23.6161 62.4943 9.95068 45.6372 9.95068C28.7801 9.95068 15.1147 23.6161 15.1147 40.4731C15.1147 57.3302 28.7801 70.9956 45.6372 70.9956Z" fill="#B5C59E"/>
<path d="M45.6374 70.8735C62.4269 70.8735 76.0375 57.2629 76.0375 40.4734C76.0375 23.6838 62.4269 10.0732 45.6374 10.0732C28.8479 10.0732 15.2373 23.6838 15.2373 40.4734C15.2373 57.2629 28.8479 70.8735 45.6374 70.8735Z" fill="#B3C49C"/>
<path d="M45.6371 70.7508C62.3591 70.7508 75.9149 57.195 75.9149 40.4731C75.9149 23.7511 62.3591 10.1953 45.6371 10.1953C28.9152 10.1953 15.3594 23.7511 15.3594 40.4731C15.3594 57.195 28.9152 70.7508 45.6371 70.7508Z" fill="#B2C39A"/>
<path d="M45.6374 70.6287C62.2917 70.6287 75.7928 57.1277 75.7928 40.4733C75.7928 23.8189 62.2917 10.3179 45.6374 10.3179C28.983 10.3179 15.4819 23.8189 15.4819 40.4733C15.4819 57.1277 28.983 70.6287 45.6374 70.6287Z" fill="#B0C198"/>
<path d="M45.6371 70.5061C62.2239 70.5061 75.6702 57.0598 75.6702 40.473C75.6702 23.8862 62.2239 10.4399 45.6371 10.4399C29.0503 10.4399 15.604 23.8862 15.604 40.473C15.604 57.0598 29.0503 70.5061 45.6371 70.5061Z" fill="#AFC096"/>
<path d="M45.6373 70.384C62.1565 70.384 75.548 56.9925 75.548 40.4732C75.548 23.954 62.1565 10.5625 45.6373 10.5625C29.1181 10.5625 15.7266 23.954 15.7266 40.4732C15.7266 56.9925 29.1181 70.384 45.6373 70.384Z" fill="#ADBF94"/>
<path d="M45.637 70.2613C62.0887 70.2613 75.4254 56.9246 75.4254 40.473C75.4254 24.0213 62.0887 10.6846 45.637 10.6846C29.1853 10.6846 15.8486 24.0213 15.8486 40.473C15.8486 56.9246 29.1853 70.2613 45.637 70.2613Z" fill="#ACBE92"/>
<path d="M45.6372 70.1392C62.0213 70.1392 75.3033 56.8573 75.3033 40.4732C75.3033 24.0891 62.0213 10.8071 45.6372 10.8071C29.2531 10.8071 15.9712 24.0891 15.9712 40.4732C15.9712 56.8573 29.2531 70.1392 45.6372 70.1392Z" fill="#AABD90"/>
<path d="M45.6374 70.0171C61.954 70.0171 75.1811 56.7899 75.1811 40.4734C75.1811 24.1568 61.954 10.9297 45.6374 10.9297C29.3209 10.9297 16.0938 24.1568 16.0938 40.4734C16.0938 56.7899 29.3209 70.0171 45.6374 70.0171Z" fill="#A9BB8E"/>
<path d="M45.6372 69.8945C61.8861 69.8945 75.0585 56.7221 75.0585 40.4731C75.0585 24.2241 61.8861 11.0518 45.6372 11.0518C29.3882 11.0518 16.2158 24.2241 16.2158 40.4731C16.2158 56.7221 29.3882 69.8945 45.6372 69.8945Z" fill="#A7BA8C"/>
<path d="M45.6374 69.7723C61.8188 69.7723 74.9364 56.6547 74.9364 40.4733C74.9364 24.2919 61.8188 11.1743 45.6374 11.1743C29.456 11.1743 16.3384 24.2919 16.3384 40.4733C16.3384 56.6547 29.456 69.7723 45.6374 69.7723Z" fill="#A6B98A"/>
<path d="M45.6371 69.6497C61.7509 69.6497 74.8138 56.5869 74.8138 40.4731C74.8138 24.3592 61.7509 11.2964 45.6371 11.2964C29.5233 11.2964 16.4604 24.3592 16.4604 40.4731C16.4604 56.5869 29.5233 69.6497 45.6371 69.6497Z" fill="#A4B888"/>
<path d="M45.6373 69.5276C61.6836 69.5276 74.6916 56.5195 74.6916 40.4733C74.6916 24.427 61.6836 11.4189 45.6373 11.4189C29.5911 11.4189 16.583 24.427 16.583 40.4733C16.583 56.5195 29.5911 69.5276 45.6373 69.5276Z" fill="#A3B786"/>
<path d="M45.637 69.4053C61.6159 69.4053 74.5694 56.4519 74.5694 40.4729C74.5694 24.494 61.6159 11.5405 45.637 11.5405C29.6581 11.5405 16.7046 24.494 16.7046 40.4729C16.7046 56.4519 29.6581 69.4053 45.637 69.4053Z" fill="#A1B584"/>
<path d="M45.6372 69.2832C61.5486 69.2832 74.4473 56.3845 74.4473 40.4731C74.4473 24.5618 61.5486 11.6631 45.6372 11.6631C29.7258 11.6631 16.8271 24.5618 16.8271 40.4731C16.8271 56.3845 29.7258 69.2832 45.6372 69.2832Z" fill="#A0B482"/>
<path d="M45.6374 69.1611C61.4812 69.1611 74.3251 56.3171 74.3251 40.4734C74.3251 24.6296 61.4812 11.7856 45.6374 11.7856C29.7936 11.7856 16.9497 24.6296 16.9497 40.4734C16.9497 56.3171 29.7936 69.1611 45.6374 69.1611Z" fill="#9EB380"/>
<path d="M45.6371 69.0385C61.4134 69.0385 74.2025 56.2493 74.2025 40.4731C74.2025 24.6969 61.4134 11.9077 45.6371 11.9077C29.8609 11.9077 17.0718 24.6969 17.0718 40.4731C17.0718 56.2493 29.8609 69.0385 45.6371 69.0385Z" fill="#9DB27F"/>
<path d="M45.6374 68.9163C61.346 68.9163 74.0804 56.1819 74.0804 40.4733C74.0804 24.7646 61.346 12.0303 45.6374 12.0303C29.9287 12.0303 17.1943 24.7646 17.1943 40.4733C17.1943 56.1819 29.9287 68.9163 45.6374 68.9163Z" fill="#9BB17D"/>
<path d="M45.6371 68.7937C61.2782 68.7937 73.9578 56.1141 73.9578 40.473C73.9578 24.8319 61.2782 12.1523 45.6371 12.1523C29.996 12.1523 17.3164 24.8319 17.3164 40.473C17.3164 56.1141 29.996 68.7937 45.6371 68.7937Z" fill="#9AB07B"/>
<path d="M45.6373 68.6716C61.2108 68.6716 73.8356 56.0467 73.8356 40.4732C73.8356 24.8997 61.2108 12.2749 45.6373 12.2749C30.0638 12.2749 17.439 24.8997 17.439 40.4732C17.439 56.0467 30.0638 68.6716 45.6373 68.6716Z" fill="#98AE79"/>
<path d="M45.637 68.5489C61.143 68.5489 73.713 55.9789 73.713 40.473C73.713 24.967 61.143 12.397 45.637 12.397C30.1311 12.397 17.561 24.967 17.561 40.473C17.561 55.9789 30.1311 68.5489 45.637 68.5489Z" fill="#97AD77"/>
<path d="M45.6372 68.4268C61.0756 68.4268 73.5909 55.9115 73.5909 40.4732C73.5909 25.0348 61.0756 12.5195 45.6372 12.5195C30.1989 12.5195 17.6836 25.0348 17.6836 40.4732C17.6836 55.9115 30.1989 68.4268 45.6372 68.4268Z" fill="#95AC75"/>
<path d="M45.637 68.3042C61.0078 68.3042 73.4683 55.8437 73.4683 40.4729C73.4683 25.1021 61.0078 12.6416 45.637 12.6416C30.2662 12.6416 17.8057 25.1021 17.8057 40.4729C17.8057 55.8437 30.2662 68.3042 45.637 68.3042Z" fill="#94AB73"/>
<path d="M45.6372 68.1821C60.9404 68.1821 73.3461 55.7763 73.3461 40.4731C73.3461 25.1699 60.9404 12.7642 45.6372 12.7642C30.3339 12.7642 17.9282 25.1699 17.9282 40.4731C17.9282 55.7763 30.3339 68.1821 45.6372 68.1821Z" fill="#92AA71"/>
<path d="M45.6374 68.0599C60.8731 68.0599 73.224 55.709 73.224 40.4733C73.224 25.2377 60.8731 12.8867 45.6374 12.8867C30.4017 12.8867 18.0508 25.2377 18.0508 40.4733C18.0508 55.709 30.4017 68.0599 45.6374 68.0599Z" fill="#91A86F"/>
<path d="M45.6371 67.9373C60.8052 67.9373 73.1014 55.6411 73.1014 40.4731C73.1014 25.305 60.8052 13.0088 45.6371 13.0088C30.469 13.0088 18.1729 25.305 18.1729 40.4731C18.1729 55.6411 30.469 67.9373 45.6371 67.9373Z" fill="#8FA76D"/>
<path d="M45.6373 67.8152C60.7379 67.8152 72.9792 55.5738 72.9792 40.4733C72.9792 25.3727 60.7379 13.1313 45.6373 13.1313C30.5368 13.1313 18.2954 25.3727 18.2954 40.4733C18.2954 55.5738 30.5368 67.8152 45.6373 67.8152Z" fill="#8EA66B"/>
<path d="M45.637 67.6929C60.6702 67.6929 72.857 55.5061 72.857 40.4729C72.857 25.4397 60.6702 13.2529 45.637 13.2529C30.6038 13.2529 18.417 25.4397 18.417 40.4729C18.417 55.5061 30.6038 67.6929 45.637 67.6929Z" fill="#8CA569"/>
<path d="M45.6372 67.5708C60.6028 67.5708 72.7349 55.4388 72.7349 40.4732C72.7349 25.5075 60.6028 13.3755 45.6372 13.3755C30.6716 13.3755 18.5396 25.5075 18.5396 40.4732C18.5396 55.4388 30.6716 67.5708 45.6372 67.5708Z" fill="#8BA467"/>
<path d="M45.6374 67.4487C60.5355 67.4487 72.6127 55.3714 72.6127 40.4734C72.6127 25.5753 60.5355 13.498 45.6374 13.498C30.7394 13.498 18.6621 25.5753 18.6621 40.4734C18.6621 55.3714 30.7394 67.4487 45.6374 67.4487Z" fill="#89A265"/>
<path d="M45.6372 67.3261C60.4676 67.3261 72.4901 55.3036 72.4901 40.4731C72.4901 25.6426 60.4676 13.6201 45.6372 13.6201C30.8067 13.6201 18.7842 25.6426 18.7842 40.4731C18.7842 55.3036 30.8067 67.3261 45.6372 67.3261Z" fill="#88A163"/>
<path d="M45.6374 67.2039C60.4003 67.2039 72.368 55.2362 72.368 40.4733C72.368 25.7104 60.4003 13.7427 45.6374 13.7427C30.8744 13.7427 18.9067 25.7104 18.9067 40.4733C18.9067 55.2362 30.8744 67.2039 45.6374 67.2039Z" fill="#86A061"/>
<path d="M45.6371 67.0813C60.3324 67.0813 72.2454 55.1684 72.2454 40.473C72.2454 25.7777 60.3324 13.8647 45.6371 13.8647C30.9417 13.8647 19.0288 25.7777 19.0288 40.473C19.0288 55.1684 30.9417 67.0813 45.6371 67.0813Z" fill="#859F5F"/>
<path d="M45.6373 66.9592C60.2651 66.9592 72.1232 55.101 72.1232 40.4732C72.1232 25.8455 60.2651 13.9873 45.6373 13.9873C31.0095 13.9873 19.1514 25.8455 19.1514 40.4732C19.1514 55.101 31.0095 66.9592 45.6373 66.9592Z" fill="#839E5D"/>
<path d="M45.637 66.8366C60.1972 66.8366 72.0006 55.0332 72.0006 40.473C72.0006 25.9128 60.1972 14.1094 45.637 14.1094C31.0768 14.1094 19.2734 25.9128 19.2734 40.473C19.2734 55.0332 31.0768 66.8366 45.637 66.8366Z" fill="#829D5B"/>
<path d="M45.6372 66.7144C60.1299 66.7144 71.8785 54.9658 71.8785 40.4732C71.8785 25.9805 60.1299 14.2319 45.6372 14.2319C31.1446 14.2319 19.396 25.9805 19.396 40.4732C19.396 54.9658 31.1446 66.7144 45.6372 66.7144Z" fill="#809B59"/>
<path d="M45.637 66.5918C60.062 66.5918 71.7559 54.898 71.7559 40.4729C71.7559 26.0478 60.062 14.354 45.637 14.354C31.2119 14.354 19.5181 26.0478 19.5181 40.4729C19.5181 54.898 31.2119 66.5918 45.637 66.5918Z" fill="#7F9A57"/>
<path d="M45.6372 66.4697C59.9947 66.4697 71.6337 54.8306 71.6337 40.4731C71.6337 26.1156 59.9947 14.4766 45.6372 14.4766C31.2797 14.4766 19.6406 26.1156 19.6406 40.4731C19.6406 54.8306 31.2797 66.4697 45.6372 66.4697Z" fill="#7D9955"/>
<path d="M45.6374 66.3476C59.9273 66.3476 71.5116 54.7633 71.5116 40.4733C71.5116 26.1834 59.9273 14.5991 45.6374 14.5991C31.3475 14.5991 19.7632 26.1834 19.7632 40.4733C19.7632 54.7633 31.3475 66.3476 45.6374 66.3476Z" fill="#7B9853"/>
<path d="M45.6371 66.2249C59.8595 66.2249 71.389 54.6954 71.389 40.4731C71.389 26.2507 59.8595 14.7212 45.6371 14.7212C31.4148 14.7212 19.8853 26.2507 19.8853 40.4731C19.8853 54.6954 31.4148 66.2249 45.6371 66.2249Z" fill="#7A9751"/>
<path d="M45.6373 66.1028C59.7921 66.1028 71.2669 54.6281 71.2669 40.4733C71.2669 26.3185 59.7921 14.8438 45.6373 14.8438C31.4825 14.8438 20.0078 26.3185 20.0078 40.4733C20.0078 54.6281 31.4825 66.1028 45.6373 66.1028Z" fill="#78954F"/>
<path d="M45.637 65.9806C59.7245 65.9806 71.1446 54.5604 71.1446 40.4729C71.1446 26.3855 59.7245 14.9653 45.637 14.9653C31.5495 14.9653 20.1294 26.3855 20.1294 40.4729C20.1294 54.5604 31.5495 65.9806 45.637 65.9806Z" fill="#77944D"/>
<path d="M45.6372 65.8584C59.6571 65.8584 71.0225 54.493 71.0225 40.4732C71.0225 26.4533 59.6571 15.0879 45.6372 15.0879C31.6173 15.0879 20.252 26.4533 20.252 40.4732C20.252 54.493 31.6173 65.8584 45.6372 65.8584Z" fill="#75934B"/>
<path d="M45.6374 65.7363C59.5898 65.7363 70.9003 54.4257 70.9003 40.4734C70.9003 26.521 59.5898 15.2104 45.6374 15.2104C31.6851 15.2104 20.3745 26.521 20.3745 40.4734C20.3745 54.4257 31.6851 65.7363 45.6374 65.7363Z" fill="#749249"/>
<path d="M45.6372 65.6137C59.5219 65.6137 70.7777 54.3578 70.7777 40.4731C70.7777 26.5883 59.5219 15.3325 45.6372 15.3325C31.7524 15.3325 20.4966 26.5883 20.4966 40.4731C20.4966 54.3578 31.7524 65.6137 45.6372 65.6137Z" fill="#729147"/>
<path d="M45.6374 65.4915C59.4546 65.4915 70.6556 54.2905 70.6556 40.4733C70.6556 26.6561 59.4546 15.4551 45.6374 15.4551C31.8202 15.4551 20.6191 26.6561 20.6191 40.4733C20.6191 54.2905 31.8202 65.4915 45.6374 65.4915Z" fill="#719045"/>
<path d="M45.6371 65.3689C59.3867 65.3689 70.533 54.2226 70.533 40.473C70.533 26.7234 59.3867 15.5771 45.6371 15.5771C31.8875 15.5771 20.7412 26.7234 20.7412 40.473C20.7412 54.2226 31.8875 65.3689 45.6371 65.3689Z" fill="#6F8E43"/>
<path d="M45.6373 65.2468C59.3194 65.2468 70.4109 54.1553 70.4109 40.4732C70.4109 26.7912 59.3194 15.6997 45.6373 15.6997C31.9553 15.6997 20.8638 26.7912 20.8638 40.4732C20.8638 54.1553 31.9553 65.2468 45.6373 65.2468Z" fill="#6E8D41"/>
<path d="M45.637 65.1242C59.2515 65.1242 70.2882 54.0875 70.2882 40.473C70.2882 26.8585 59.2515 15.8218 45.637 15.8218C32.0226 15.8218 20.9858 26.8585 20.9858 40.473C20.9858 54.0875 32.0226 65.1242 45.637 65.1242Z" fill="#6C8C3F"/>
<path d="M45.6372 65.002C59.1842 65.002 70.1661 54.0201 70.1661 40.4732C70.1661 26.9263 59.1842 15.9443 45.6372 15.9443C32.0903 15.9443 21.1084 26.9263 21.1084 40.4732C21.1084 54.0201 32.0903 65.002 45.6372 65.002Z" fill="#6B8B3D"/>
<path d="M45.637 64.8794C59.1163 64.8794 70.0435 53.9522 70.0435 40.4729C70.0435 26.9936 59.1163 16.0664 45.637 16.0664C32.1576 16.0664 21.2305 26.9936 21.2305 40.4729C21.2305 53.9522 32.1576 64.8794 45.637 64.8794Z" fill="#698A3B"/>
<path d="M45.6372 64.7573C59.049 64.7573 69.9213 53.8849 69.9213 40.4731C69.9213 27.0614 59.049 16.189 45.6372 16.189C32.2254 16.189 21.353 27.0614 21.353 40.4731C21.353 53.8849 32.2254 64.7573 45.6372 64.7573Z" fill="#688839"/>
<path d="M45.6374 64.6352C58.9816 64.6352 69.7992 53.8175 69.7992 40.4733C69.7992 27.1291 58.9816 16.3115 45.6374 16.3115C32.2932 16.3115 21.4756 27.1291 21.4756 40.4733C21.4756 53.8175 32.2932 64.6352 45.6374 64.6352Z" fill="#668737"/>
<path d="M45.6371 64.5125C58.9138 64.5125 69.6766 53.7497 69.6766 40.4731C69.6766 27.1964 58.9138 16.4336 45.6371 16.4336C32.3605 16.4336 21.5977 27.1964 21.5977 40.4731C21.5977 53.7497 32.3605 64.5125 45.6371 64.5125Z" fill="#658635"/>
<path d="M45.6373 64.3904C58.8464 64.3904 69.5545 53.6823 69.5545 40.4733C69.5545 27.2642 58.8464 16.5562 45.6373 16.5562C32.4283 16.5562 21.7202 27.2642 21.7202 40.4733C21.7202 53.6823 32.4283 64.3904 45.6373 64.3904Z" fill="#638533"/>
<path d="M45.6371 64.2678C58.7786 64.2678 69.4319 53.6145 69.4319 40.473C69.4319 27.3315 58.7786 16.6782 45.6371 16.6782C32.4956 16.6782 21.8423 27.3315 21.8423 40.473C21.8423 53.6145 32.4956 64.2678 45.6371 64.2678Z" fill="#628431"/>
<path d="M45.6372 64.146C58.7114 64.146 69.3101 53.5473 69.3101 40.4732C69.3101 27.399 58.7114 16.8003 45.6372 16.8003C32.5631 16.8003 21.9644 27.399 21.9644 40.4732C21.9644 53.5473 32.5631 64.146 45.6372 64.146Z" fill="#60822F"/>
<path d="M45.6374 64.0239C58.644 64.0239 69.188 53.48 69.188 40.4734C69.188 27.4668 58.644 16.9229 45.6374 16.9229C32.6308 16.9229 22.0869 27.4668 22.0869 40.4734C22.0869 53.48 32.6308 64.0239 45.6374 64.0239Z" fill="#5F812D"/>
<path d="M45.6372 63.9013C58.5762 63.9013 69.0653 53.4121 69.0653 40.4731C69.0653 27.5341 58.5762 17.0449 45.6372 17.0449C32.6981 17.0449 22.209 27.5341 22.209 40.4731C22.209 53.4121 32.6981 63.9013 45.6372 63.9013Z" fill="#5D802B"/>
<path d="M45.6374 63.7791C58.5088 63.7791 68.9432 53.3448 68.9432 40.4733C68.9432 27.6019 58.5088 17.1675 45.6374 17.1675C32.7659 17.1675 22.3315 27.6019 22.3315 40.4733C22.3315 53.3448 32.7659 63.7791 45.6374 63.7791Z" fill="#5C7F2A"/>
<path d="M45.6371 63.6565C58.441 63.6565 68.8206 53.2769 68.8206 40.473C68.8206 27.6691 58.441 17.2896 45.6371 17.2896C32.8332 17.2896 22.4536 27.6691 22.4536 40.473C22.4536 53.2769 32.8332 63.6565 45.6371 63.6565Z" fill="#5A7E28"/>
<path d="M45.6373 63.5344C58.3736 63.5344 68.6985 53.2096 68.6985 40.4732C68.6985 27.7369 58.3736 17.4121 45.6373 17.4121C32.901 17.4121 22.5762 27.7369 22.5762 40.4732C22.5762 53.2096 32.901 63.5344 45.6373 63.5344Z" fill="#597D26"/>
<path d="M45.637 63.4118C58.3058 63.4118 68.5758 53.1417 68.5758 40.473C68.5758 27.8042 58.3058 17.5342 45.637 17.5342C32.9683 17.5342 22.6982 27.8042 22.6982 40.473C22.6982 53.1417 32.9683 63.4118 45.637 63.4118Z" fill="#577B24"/>
<path d="M45.6373 63.2896C58.2384 63.2896 68.4537 53.0744 68.4537 40.4732C68.4537 27.872 58.2384 17.6567 45.6373 17.6567C33.0361 17.6567 22.8208 27.872 22.8208 40.4732C22.8208 53.0744 33.0361 63.2896 45.6373 63.2896Z" fill="#567A22"/>
<path d="M45.637 63.167C58.1706 63.167 68.3311 53.0065 68.3311 40.4729C68.3311 27.9393 58.1706 17.7788 45.637 17.7788C33.1034 17.7788 22.9429 27.9393 22.9429 40.4729C22.9429 53.0065 33.1034 63.167 45.637 63.167Z" fill="#547920"/>
<path d="M45.6372 63.0449C58.1032 63.0449 68.209 52.9392 68.209 40.4731C68.209 28.0071 58.1032 17.9014 45.6372 17.9014C33.1712 17.9014 23.0654 28.0071 23.0654 40.4731C23.0654 52.9392 33.1712 63.0449 45.6372 63.0449Z" fill="#53781E"/>
<path d="M45.6374 62.9228C58.0359 62.9228 68.0868 52.8718 68.0868 40.4733C68.0868 28.0749 58.0359 18.0239 45.6374 18.0239C33.2389 18.0239 23.188 28.0749 23.188 40.4733C23.188 52.8718 33.2389 62.9228 45.6374 62.9228Z" fill="#51771C"/>
<path d="M45.6371 62.8001C57.968 62.8001 67.9642 52.804 67.9642 40.4731C67.9642 28.1422 57.968 18.146 45.6371 18.146C33.3062 18.146 23.3101 28.1422 23.3101 40.4731C23.3101 52.804 33.3062 62.8001 45.6371 62.8001Z" fill="#50751A"/>
<path d="M45.6373 62.678C57.9007 62.678 67.8421 52.7366 67.8421 40.4733C67.8421 28.2099 57.9007 18.2686 45.6373 18.2686C33.374 18.2686 23.4326 28.2099 23.4326 40.4733C23.4326 52.7366 33.374 62.678 45.6373 62.678Z" fill="#4E7418"/>
<path d="M45.6371 62.5554C57.8328 62.5554 67.7195 52.6688 67.7195 40.473C67.7195 28.2772 57.8328 18.3906 45.6371 18.3906C33.4413 18.3906 23.5547 28.2772 23.5547 40.473C23.5547 52.6688 33.4413 62.5554 45.6371 62.5554Z" fill="#4D7316"/>
<path d="M45.6372 62.4336C57.7657 62.4336 67.5977 52.6016 67.5977 40.4732C67.5977 28.3447 57.7657 18.5127 45.6372 18.5127C33.5088 18.5127 23.6768 28.3447 23.6768 40.4732C23.6768 52.6016 33.5088 62.4336 45.6372 62.4336Z" fill="#4B7214"/>
<path d="M45.6374 62.3115C57.6983 62.3115 67.4756 52.5342 67.4756 40.4734C67.4756 28.4125 57.6983 18.6353 45.6374 18.6353C33.5766 18.6353 23.7993 28.4125 23.7993 40.4734C23.7993 52.5342 33.5766 62.3115 45.6374 62.3115Z" fill="#4A7112"/>
<path d="M45.6372 62.1889C57.6305 62.1889 67.3529 52.4664 67.3529 40.4731C67.3529 28.4798 57.6305 18.7573 45.6372 18.7573C33.6439 18.7573 23.9214 28.4798 23.9214 40.4731C23.9214 52.4664 33.6439 62.1889 45.6372 62.1889Z" fill="#486F10"/>
<path d="M45.6374 62.0668C57.5631 62.0668 67.2308 52.399 67.2308 40.4733C67.2308 28.5476 57.5631 18.8799 45.6374 18.8799C33.7117 18.8799 24.0439 28.5476 24.0439 40.4733C24.0439 52.399 33.7117 62.0668 45.6374 62.0668Z" fill="#476E0E"/>
<path d="M45.6371 61.9441C57.4953 61.9441 67.1082 52.3312 67.1082 40.473C67.1082 28.6149 57.4953 19.002 45.6371 19.002C33.7789 19.002 24.166 28.6149 24.166 40.473C24.166 52.3312 33.7789 61.9441 45.6371 61.9441Z" fill="#456D0C"/>
<path d="M45.6373 61.822C57.4279 61.822 66.9861 52.2638 66.9861 40.4733C66.9861 28.6827 57.4279 19.1245 45.6373 19.1245C33.8467 19.1245 24.2886 28.6827 24.2886 40.4733C24.2886 52.2638 33.8467 61.822 45.6373 61.822Z" fill="#446C0A"/>
<path d="M45.637 61.6994C57.3601 61.6994 66.8634 52.196 66.8634 40.473C66.8634 28.75 57.3601 19.2466 45.637 19.2466C33.914 19.2466 24.4106 28.75 24.4106 40.473C24.4106 52.196 33.914 61.6994 45.637 61.6994Z" fill="#426B08"/>
<path d="M45.6373 61.5773C57.2927 61.5773 66.7413 52.1286 66.7413 40.4732C66.7413 28.8177 57.2927 19.3691 45.6373 19.3691C33.9818 19.3691 24.5332 28.8177 24.5332 40.4732C24.5332 52.1286 33.9818 61.5773 45.6373 61.5773Z" fill="#416A06"/>
<path d="M45.637 61.4546C57.2249 61.4546 66.6187 52.0608 66.6187 40.4729C66.6187 28.885 57.2249 19.4912 45.637 19.4912C34.0491 19.4912 24.6553 28.885 24.6553 40.4729C24.6553 52.0608 34.0491 61.4546 45.637 61.4546Z" fill="#3F6804"/>
<path d="M45.6372 61.3325C57.1575 61.3325 66.4966 51.9934 66.4966 40.4731C66.4966 28.9528 57.1575 19.6138 45.6372 19.6138C34.1169 19.6138 24.7778 28.9528 24.7778 40.4731C24.7778 51.9934 34.1169 61.3325 45.6372 61.3325Z" fill="#3E6702"/>
<path d="M45.6374 61.2104C57.0902 61.2104 66.3744 51.9261 66.3744 40.4733C66.3744 29.0206 57.0902 19.7363 45.6374 19.7363C34.1847 19.7363 24.9004 29.0206 24.9004 40.4733C24.9004 51.9261 34.1847 61.2104 45.6374 61.2104Z" fill="#3C6600"/>
</g>
<path d="M45.6369 72.3847C63.2611 72.3847 77.5482 58.0975 77.5482 40.4733C77.5482 22.8492 63.2611 8.56201 45.6369 8.56201C28.0128 8.56201 13.7256 22.8492 13.7256 40.4733C13.7256 58.0975 28.0128 72.3847 45.6369 72.3847Z" fill="white"/>
<path d="M61.8561 29.763C61.0718 28.9787 60.008 28.5381 58.8989 28.5381C57.7898 28.5381 56.726 28.9787 55.9417 29.763L41.1311 44.5736L36.3661 39.8069C34.755 38.1957 32.1297 38.0971 30.4746 39.6634C30.0682 40.0474 29.7429 40.5089 29.518 41.0207C29.2931 41.5326 29.173 42.0843 29.165 42.6433C29.1569 43.2023 29.2611 43.7573 29.4712 44.2754C29.6814 44.7935 29.9933 45.2641 30.3885 45.6596L37.6762 52.946C38.1299 53.3998 38.6686 53.7598 39.2615 54.0054C39.8544 54.2509 40.4898 54.3774 41.1316 54.3774C41.7733 54.3774 42.4087 54.2509 43.0016 54.0054C43.5945 53.7598 44.1332 53.3998 44.5869 52.946L47.0459 50.4871L61.8565 35.6764C62.6405 34.8921 63.0808 33.8285 63.0807 32.7196C63.0807 31.6107 62.6401 30.5472 61.8561 29.763Z" fill="#34B715"/>
<g style="mix-blend-mode:multiply" opacity="0.5">
<path d="M61.8561 29.763C61.0718 28.9787 60.0081 28.5381 58.8989 28.5381C57.7898 28.5381 56.726 28.9787 55.9417 29.763L41.1311 44.5736L36.3661 39.8069C34.755 38.1957 32.1297 38.0971 30.4746 39.6634C30.0682 40.0474 29.7429 40.5089 29.518 41.0207C29.2931 41.5326 29.173 42.0843 29.165 42.6433C29.1569 43.2023 29.2611 43.7573 29.4712 44.2754C29.6814 44.7935 29.9933 45.2641 30.3885 45.6596L37.6762 52.946C38.1299 53.3998 38.6686 53.7598 39.2615 54.0054C39.8544 54.251 40.4898 54.3774 41.1316 54.3774C41.7733 54.3774 42.4087 54.251 43.0016 54.0054C43.5945 53.7598 44.1332 53.3998 44.5869 52.946L47.0459 50.4871L61.8565 35.6764C62.6405 34.8921 63.0808 33.8285 63.0807 32.7196C63.0807 31.6107 62.6401 30.5472 61.8561 29.763Z" fill="#75AA31"/>
<path d="M61.8179 29.9257C61.0373 29.1451 59.9785 28.7065 58.8745 28.7065C57.7706 28.7065 56.7118 29.1451 55.9312 29.9257L41.0977 44.7608L36.325 39.9877C34.7211 38.3838 32.1079 38.2856 30.461 39.8451C30.0565 40.2272 29.7326 40.6865 29.5087 41.196C29.2847 41.7054 29.1652 42.2545 29.1572 42.811C29.1491 43.3674 29.2528 43.9198 29.4619 44.4355C29.6711 44.9511 29.9815 45.4196 30.3749 45.8133L37.6552 53.0936C38.5674 54.0057 39.8045 54.5181 41.0945 54.5181C42.3844 54.5181 43.6215 54.0057 44.5337 53.0936L46.981 50.6459L61.814 35.8124C62.5952 35.0323 63.0344 33.9738 63.0351 32.8699C63.0358 31.7659 62.598 30.7068 61.8179 29.9257Z" fill="#7CAE3C"/>
<path d="M61.7803 30.0888C61.0034 29.3119 59.9496 28.8755 58.8509 28.8755C57.7522 28.8755 56.6985 29.3119 55.9215 30.0888L41.0657 44.9447L36.2839 40.1629C34.6874 38.569 32.0863 38.469 30.4471 40.0207C30.0445 40.4012 29.7224 40.8585 29.4996 41.3657C29.2769 41.8728 29.1581 42.4195 29.1503 42.9734C29.1425 43.5272 29.2459 44.077 29.4543 44.5903C29.6626 45.1035 29.9718 45.5697 30.3635 45.9613L37.6439 53.2396C38.0935 53.6891 38.6272 54.0457 39.2145 54.289C39.8019 54.5323 40.4314 54.6575 41.0672 54.6575C41.703 54.6575 42.3325 54.5323 42.9199 54.289C43.5072 54.0457 44.0409 53.6891 44.4905 53.2396L46.9266 50.8034L61.7825 35.9472C62.5589 35.1699 62.9949 34.1162 62.9945 33.0175C62.9941 31.9189 62.5573 30.8655 61.7803 30.0888Z" fill="#84B347"/>
<path d="M61.7422 30.2514C61.3594 29.8685 60.9048 29.5647 60.4045 29.3574C59.9042 29.1501 59.368 29.0435 58.8264 29.0435C58.2849 29.0435 57.7487 29.1501 57.2484 29.3574C56.7481 29.5647 56.2935 29.8685 55.9106 30.2514L41.0319 45.1301L36.2428 40.341C34.6541 38.7522 32.0641 38.6549 30.4336 40.1997C30.0329 40.5784 29.7123 41.0336 29.4906 41.5383C29.2689 42.0431 29.1507 42.5872 29.143 43.1384C29.1352 43.6897 29.2381 44.2369 29.4455 44.7477C29.6529 45.2585 29.9606 45.7225 30.3504 46.1123L37.6248 53.3871C38.5285 54.2907 39.7541 54.7984 41.0321 54.7984C42.3101 54.7984 43.5358 54.2907 44.4395 53.3871L46.864 50.9622L61.7427 36.0835C62.1257 35.7006 62.4295 35.2459 62.6367 34.7456C62.844 34.2452 62.9507 33.7089 62.9506 33.1674C62.9506 32.6258 62.8438 32.0895 62.6365 31.5892C62.4292 31.0889 62.1253 30.6343 61.7422 30.2514Z" fill="#8BB752"/>
<path d="M61.7045 30.4156C61.3234 30.0345 60.871 29.7321 60.373 29.5258C59.875 29.3196 59.3413 29.2134 58.8023 29.2134C58.2633 29.2134 57.7296 29.3196 57.2316 29.5258C56.7336 29.7321 56.2812 30.0345 55.9001 30.4156L40.9973 45.3154L36.2004 40.5186C34.619 38.9375 32.0424 38.8385 30.4183 40.3781C30.0195 40.755 29.7004 41.208 29.4797 41.7104C29.2591 42.2128 29.1414 42.7543 29.1337 43.303C29.126 43.8516 29.2284 44.3962 29.4348 44.9046C29.6413 45.413 29.9476 45.8748 30.3356 46.2627L37.6065 53.5336C38.0518 53.979 38.5804 54.3323 39.1623 54.5733C39.7441 54.8143 40.3677 54.9384 40.9975 54.9384C41.6272 54.9384 42.2509 54.8143 42.8327 54.5733C43.4145 54.3323 43.9432 53.979 44.3884 53.5336L46.8009 51.1212L61.7024 36.2201C62.4722 35.4506 62.905 34.4068 62.9054 33.3183C62.9058 32.2298 62.4738 31.1857 61.7045 30.4156Z" fill="#92BC5C"/>
<path d="M61.667 30.577C61.2877 30.1977 60.8374 29.8967 60.3418 29.6914C59.8462 29.4861 59.315 29.3804 58.7786 29.3804C58.2421 29.3804 57.7109 29.4861 57.2153 29.6914C56.7197 29.8967 56.2694 30.1977 55.8901 30.577L40.9658 45.501L36.1611 40.6963C34.587 39.1222 32.0225 39.0257 30.4062 40.5559C30.0091 40.9311 29.6912 41.3821 29.4715 41.8823C29.2517 42.3824 29.1345 42.9216 29.1269 43.4679C29.1192 44.0142 29.2212 44.5564 29.4268 45.0626C29.6324 45.5687 29.9375 46.0285 30.3239 46.4147L37.5909 53.6821C38.0341 54.1254 38.5603 54.477 39.1394 54.7169C39.7185 54.9568 40.3392 55.0802 40.966 55.0802C41.5928 55.0802 42.2135 54.9568 42.7926 54.7169C43.3716 54.477 43.8978 54.1254 44.341 53.6821L46.7431 51.28L61.6675 36.3561C62.0471 35.9767 62.3482 35.5263 62.5537 35.0304C62.7591 34.5346 62.8648 34.0032 62.8648 33.4665C62.8648 32.9298 62.759 32.3984 62.5534 31.9026C62.3479 31.4068 62.0467 30.9564 61.667 30.577Z" fill="#99C067"/>
<path d="M61.629 30.7394C60.8664 29.9771 59.8323 29.5488 58.7541 29.5488C57.6758 29.5488 56.6417 29.9771 55.8792 30.7394L40.9307 45.6879L36.1179 40.8751C34.5515 39.3083 31.9991 39.2127 30.3884 40.7355C29.9934 41.1089 29.6773 41.5576 29.4588 42.0553C29.2403 42.5529 29.1238 43.0893 29.1161 43.6327C29.1085 44.1762 29.2099 44.7157 29.4144 45.2192C29.6188 45.7228 29.9222 46.1803 30.3065 46.5646L37.5697 53.8281C38.0107 54.2693 38.5344 54.6193 39.1108 54.8581C39.6871 55.0969 40.3049 55.2198 40.9288 55.2198C41.5526 55.2198 42.1704 55.0969 42.7467 54.8581C43.3231 54.6193 43.8468 54.2693 44.2879 53.8281L46.6839 51.4381L61.6324 36.4896C62.0098 36.1119 62.3091 35.6635 62.5132 35.17C62.7173 34.6766 62.8222 34.1478 62.8218 33.6138C62.8215 33.0798 62.716 32.5512 62.5113 32.058C62.3067 31.5648 62.0068 31.1167 61.629 30.7394Z" fill="#A1C572"/>
<path d="M61.5891 30.9025C61.2134 30.5267 60.7673 30.2287 60.2764 30.0253C59.7855 29.822 59.2594 29.7173 58.728 29.7173C58.1966 29.7173 57.6705 29.822 57.1796 30.0253C56.6886 30.2287 56.2426 30.5267 55.8669 30.9025L40.8973 45.8721L36.0767 41.0515C34.5177 39.4925 31.9778 39.3968 30.3765 40.9128C29.9834 41.2843 29.6688 41.7309 29.4513 42.2262C29.2338 42.7214 29.1179 43.2553 29.1103 43.7961C29.1027 44.337 29.2036 44.8738 29.4071 45.375C29.6106 45.8761 29.9126 46.3314 30.2951 46.7138L37.5548 53.974C38.4415 54.8604 39.6439 55.3583 40.8977 55.3583C42.1515 55.3583 43.354 54.8604 44.2407 53.974L46.6199 51.5947L61.5891 36.6247C61.9648 36.249 62.2629 35.8029 62.4663 35.312C62.6696 34.8211 62.7743 34.2949 62.7743 33.7636C62.7743 33.2322 62.6696 32.7061 62.4663 32.2152C62.2629 31.7242 61.9648 31.2782 61.5891 30.9025Z" fill="#A8C97D"/>
<path d="M61.5533 31.0655C60.7981 30.3104 59.7739 29.8862 58.706 29.8862C57.638 29.8862 56.6138 30.3104 55.8586 31.0655L40.8671 46.057L36.0375 41.2287C34.4866 39.6779 31.9583 39.5822 30.3648 41.0904C29.9738 41.4603 29.6609 41.9047 29.4446 42.3975C29.2283 42.8903 29.1129 43.4215 29.1054 43.9597C29.0978 44.4978 29.1982 45.032 29.4006 45.5307C29.603 46.0294 29.9034 46.4824 30.2838 46.8631L37.5397 54.1189C38.4221 55.0011 39.6188 55.4968 40.8667 55.4968C42.1145 55.4968 43.3112 55.0011 44.1937 54.1189L46.563 51.7495L61.5546 36.758C62.309 36.0028 62.7327 34.9789 62.7325 33.9115C62.7322 32.844 62.3081 31.8203 61.5533 31.0655Z" fill="#AFCE88"/>
<path d="M61.5158 31.228C61.1438 30.8557 60.702 30.5604 60.2158 30.3589C59.7296 30.1574 59.2084 30.0537 58.6821 30.0537C58.1558 30.0537 57.6346 30.1574 57.1484 30.3589C56.6622 30.5604 56.2204 30.8557 55.8483 31.228L40.8335 46.2432L35.9966 41.4063C34.4526 39.8623 31.9368 39.7693 30.3511 41.2689C29.9616 41.6368 29.6499 42.0792 29.4345 42.5697C29.219 43.0603 29.1041 43.5891 29.0966 44.1248C29.0891 44.6605 29.1891 45.1923 29.3907 45.6887C29.5924 46.1851 29.8915 46.636 30.2705 47.0148L37.5225 54.2667C37.9573 54.7016 38.4735 55.0465 39.0416 55.2818C39.6097 55.5172 40.2186 55.6383 40.8335 55.6383C41.4485 55.6383 42.0574 55.5172 42.6255 55.2818C43.1936 55.0465 43.7098 54.7016 44.1446 54.2667L46.501 51.9107L61.5163 36.8955C61.8885 36.5234 62.1838 36.0816 62.3852 35.5954C62.5867 35.1091 62.6904 34.5879 62.6903 34.0616C62.6903 33.5353 62.5865 33.0142 62.385 32.5279C62.1835 32.0417 61.8881 31.6 61.5158 31.228Z" fill="#B6D293"/>
<path d="M61.4778 31.3911C60.7298 30.6433 59.7155 30.2231 58.6578 30.2231C57.6001 30.2231 56.5858 30.6433 55.8379 31.3911L40.8002 46.4288L35.9572 41.5841C34.4206 40.0474 31.9168 39.9535 30.3389 41.4471C29.9514 41.8133 29.6413 42.2536 29.4269 42.7418C29.2125 43.23 29.0982 43.7562 29.0907 44.2893C29.0833 44.8225 29.1828 45.3517 29.3834 45.8457C29.584 46.3397 29.8817 46.7884 30.2587 47.1654L37.5072 54.4139C37.94 54.8468 38.4537 55.1902 39.0192 55.4244C39.5846 55.6587 40.1907 55.7793 40.8028 55.7793C41.4149 55.7793 42.0209 55.6587 42.5864 55.4244C43.1518 55.1902 43.6656 54.8468 44.0983 54.4139L46.4431 52.0691L61.4808 37.0315C61.851 36.6609 62.1445 36.2211 62.3447 35.7371C62.5449 35.2531 62.6477 34.7344 62.6475 34.2107C62.6472 33.6869 62.5437 33.1683 62.3431 32.6846C62.1424 32.2008 61.8483 31.7613 61.4778 31.3911Z" fill="#BED79D"/>
<path d="M61.4399 31.5537C61.0714 31.1851 60.634 30.8927 60.1525 30.6933C59.671 30.4938 59.1549 30.3911 58.6337 30.3911C58.1125 30.3911 57.5965 30.4938 57.115 30.6933C56.6335 30.8927 56.196 31.1851 55.8276 31.5537L40.7671 46.6133L35.9142 41.7613C34.3853 40.2324 31.8941 40.1385 30.3234 41.6252C29.9378 41.9896 29.6293 42.4277 29.4159 42.9135C29.2026 43.3993 29.0889 43.923 29.0814 44.4535C29.074 44.984 29.173 45.5106 29.3727 46.0022C29.5723 46.4938 29.8685 46.9404 30.2437 47.3155L37.4883 54.5601C37.9189 54.9907 38.4301 55.3323 38.9927 55.5654C39.5553 55.7984 40.1583 55.9184 40.7673 55.9184C41.3763 55.9184 41.9793 55.7984 42.5419 55.5654C43.1045 55.3323 43.6157 54.9907 44.0463 54.5601L46.3799 52.2269L61.4403 37.1665C61.8089 36.798 62.1013 36.3604 62.3008 35.8789C62.5003 35.3973 62.6029 34.8812 62.6029 34.36C62.6029 33.8388 62.5001 33.3226 62.3006 32.8411C62.101 32.3596 61.8086 31.9221 61.4399 31.5537Z" fill="#C5DBA8"/>
<path d="M61.4018 31.7167C60.6612 30.9761 59.6567 30.5601 58.6094 30.5601C57.562 30.5601 56.5576 30.9761 55.817 31.7167L40.7337 46.7996L35.8731 41.9389C34.3515 40.4174 31.8723 40.3243 30.3094 41.8037C29.9257 42.1664 29.6187 42.6023 29.4064 43.0857C29.1942 43.5691 29.081 44.0902 29.0736 44.6181C29.0662 45.146 29.1648 45.67 29.3634 46.1592C29.5621 46.6483 29.8568 47.0927 30.2301 47.466L37.4713 54.7072C37.8998 55.1357 38.4084 55.4756 38.9683 55.7075C39.5281 55.9394 40.1281 56.0587 40.7341 56.0587C41.3401 56.0587 41.9401 55.9394 42.4999 55.7075C43.0598 55.4756 43.5685 55.1357 43.9969 54.7072L46.3189 52.3852L61.4022 37.3019C61.7689 36.9352 62.0598 36.4998 62.2583 36.0206C62.4568 35.5414 62.5589 35.0279 62.5588 34.5092C62.5588 33.9906 62.4566 33.477 62.2581 32.9979C62.0595 32.5187 61.7686 32.0834 61.4018 31.7167Z" fill="#CCE0B3"/>
<path d="M61.3643 31.8802C60.6273 31.1434 59.6278 30.7295 58.5857 30.7295C57.5435 30.7295 56.5441 31.1434 55.8071 31.8802L40.7009 46.9863L35.833 42.1184C34.3192 40.6046 31.852 40.5115 30.2969 41.9836C29.9151 42.3445 29.6096 42.7783 29.3984 43.2594C29.1872 43.7404 29.0746 44.259 29.0673 44.7843C29.0599 45.3096 29.158 45.8311 29.3556 46.3178C29.5533 46.8046 29.8465 47.2468 30.218 47.6183L37.4553 54.8556C37.8817 55.282 38.3879 55.6203 38.945 55.8511C39.5021 56.0819 40.0992 56.2007 40.7022 56.2007C41.3052 56.2007 41.9023 56.0819 42.4594 55.8511C43.0165 55.6203 43.5227 55.282 43.9491 54.8556L46.2599 52.5453L61.3643 37.4374C62.1011 36.7004 62.515 35.7009 62.515 34.6588C62.515 33.6167 62.1011 32.6172 61.3643 31.8802Z" fill="#D3E4BE"/>
<path d="M61.3265 32.0418C60.9634 31.6787 60.5323 31.3907 60.0579 31.1941C59.5834 30.9976 59.0749 30.8965 58.5614 30.8965C58.0479 30.8965 57.5394 30.9976 57.065 31.1941C56.5906 31.3907 56.1595 31.6787 55.7964 32.0418L40.6674 47.1708L35.7909 42.2942C34.2831 40.7865 31.8276 40.6951 30.2819 42.1598C29.9021 42.519 29.5981 42.9507 29.388 43.4293C29.1778 43.908 29.0658 44.4239 29.0585 44.9466C29.0512 45.4693 29.1487 45.9882 29.3454 46.4726C29.5421 46.9569 29.8338 47.3969 30.2035 47.7666L37.4369 55.0004C38.2938 55.8573 39.456 56.3387 40.6679 56.3387C41.8797 56.3387 43.0419 55.8573 43.8988 55.0004L46.1979 52.7009L61.3269 37.5719C61.69 37.2088 61.978 36.7777 62.1745 36.3032C62.3709 35.8288 62.4721 35.3203 62.472 34.8068C62.472 34.2933 62.3708 33.7848 62.1742 33.3104C61.9777 32.8359 61.6896 32.4049 61.3265 32.0418Z" fill="#DBE9C9"/>
<path d="M61.2875 32.2045C60.5579 31.4749 59.5682 31.0649 58.5363 31.0649C57.5044 31.0649 56.5147 31.4749 55.785 32.2045L40.6332 47.3559L35.7489 42.4716C34.2498 40.9724 31.8072 40.8802 30.2671 42.338C29.8891 42.6954 29.5867 43.1249 29.3775 43.6012C29.1684 44.0775 29.057 44.5908 29.0497 45.1109C29.0424 45.6311 29.1395 46.1473 29.3352 46.6293C29.5309 47.1112 29.8213 47.549 30.1891 47.9168L37.4217 55.1468C37.8438 55.569 38.345 55.9039 38.8966 56.1324C39.4482 56.3609 40.0394 56.4785 40.6365 56.4785C41.2335 56.4785 41.8247 56.3609 42.3763 56.1324C42.9279 55.9039 43.4291 55.569 43.8512 55.1468L46.1388 52.8588L61.2875 37.707C62.0172 36.9773 62.4271 35.9877 62.4271 34.9558C62.4271 33.9239 62.0172 32.9342 61.2875 32.2045Z" fill="#E2EDD4"/>
<path d="M61.2506 32.3674C60.8911 32.0079 60.4644 31.7227 59.9947 31.5281C59.525 31.3335 59.0216 31.2334 58.5132 31.2334C58.0048 31.2334 57.5013 31.3335 57.0316 31.5281C56.5619 31.7227 56.1352 32.0079 55.7757 32.3674L40.6015 47.5416L35.7085 42.65C34.2171 41.1581 31.7883 41.0668 30.2547 42.5169C29.8786 42.8724 29.5775 43.2997 29.3693 43.7736C29.1612 44.2475 29.0502 44.7583 29.0429 45.2759C29.0356 45.7934 29.1321 46.3072 29.3268 46.7868C29.5215 47.2664 29.8103 47.702 30.1763 48.068L37.4029 55.2946C37.8229 55.7147 38.3216 56.048 38.8705 56.2754C39.4193 56.5028 40.0076 56.6198 40.6017 56.6198C41.1958 56.6198 41.7841 56.5028 42.3329 56.2754C42.8818 56.048 43.3805 55.7147 43.8005 55.2946L46.0768 53.0178L61.2511 37.8436C61.6107 37.4841 61.896 37.0572 62.0906 36.5874C62.2852 36.1175 62.3854 35.614 62.3853 35.1054C62.3853 34.5969 62.285 34.0933 62.0903 33.6235C61.8957 33.1537 61.6103 32.7269 61.2506 32.3674Z" fill="#E9F2DE"/>
<path d="M61.213 32.5306C60.8553 32.1729 60.4307 31.8892 59.9634 31.6956C59.496 31.502 58.9951 31.4023 58.4893 31.4023C57.9835 31.4023 57.4826 31.502 57.0153 31.6956C56.5479 31.8892 56.1233 32.1729 55.7656 32.5306L40.5669 47.7276L35.6679 42.8269C34.1838 41.3429 31.7654 41.252 30.2399 42.6947C29.8656 43.0484 29.566 43.4736 29.3589 43.9451C29.1518 44.4166 29.0413 44.9249 29.0341 45.4398C29.0268 45.9548 29.1229 46.4659 29.3166 46.9431C29.5103 47.4203 29.7978 47.8537 30.162 48.2179L37.3846 55.4405C38.2288 56.2846 39.3737 56.7587 40.5675 56.7587C41.7613 56.7587 42.9062 56.2846 43.7504 55.4405L46.0151 53.1754L61.2117 37.9784C61.5696 37.6208 61.8535 37.1963 62.0473 36.7289C62.2411 36.2616 62.3409 35.7607 62.341 35.2548C62.3411 34.7489 62.2416 34.2479 62.048 33.7805C61.8545 33.313 61.5707 32.8883 61.213 32.5306Z" fill="#F0F6E9"/>
<path d="M61.1752 32.693C60.4562 31.9745 59.4814 31.5708 58.4649 31.5708C57.4484 31.5708 56.4735 31.9745 55.7546 32.693L40.5351 47.9125L35.6267 43.004C34.1499 41.5273 31.7435 41.4368 30.2271 42.8748C29.8549 43.2268 29.5571 43.6499 29.3512 44.119C29.1453 44.5881 29.0354 45.0937 29.0282 45.606C29.021 46.1183 29.1165 46.6268 29.3091 47.1015C29.5017 47.5762 29.7875 48.0075 30.1496 48.37L37.3688 55.5892C38.2089 56.4283 39.3477 56.8997 40.5351 56.8997C41.7225 56.8997 42.8614 56.4283 43.7014 55.5892L45.9558 53.3335L61.1756 38.1141C61.8943 37.3951 62.2979 36.4201 62.2978 35.4035C62.2978 34.3869 61.8939 33.4119 61.1752 32.693Z" fill="#F8FBF4"/>
<path d="M61.1374 32.8563C60.7833 32.5021 60.3629 32.2212 59.9002 32.0296C59.4375 31.8379 58.9416 31.7393 58.4408 31.7393C57.94 31.7393 57.4441 31.8379 56.9815 32.0296C56.5188 32.2212 56.0984 32.5021 55.7443 32.8563L40.502 48.0985L35.5854 43.1819C34.1164 41.7125 31.7225 41.6229 30.2134 43.0527C29.8429 43.4028 29.5464 43.8238 29.3414 44.2905C29.1364 44.7573 29.0271 45.2604 29.0199 45.7702C29.0127 46.2799 29.1078 46.7859 29.2996 47.2583C29.4913 47.7307 29.7758 48.1598 30.1363 48.5203L37.3516 55.7356C38.1872 56.5712 39.3205 57.0406 40.5022 57.0406C41.6839 57.0406 42.8172 56.5712 43.6528 55.7356L45.8951 53.4933L61.1374 38.2511C61.4918 37.8969 61.773 37.4765 61.9648 37.0136C62.1567 36.5508 62.2554 36.0547 62.2554 35.5537C62.2554 35.0526 62.1567 34.5565 61.9648 34.0937C61.773 33.6309 61.4918 33.2104 61.1374 32.8563Z" fill="white"/>
</g>
</svg>
