<svg width="101" height="25" viewBox="0 0 101 25" fill="none" xmlns="http://www.w3.org/2000/svg">
<g clip-path="url(#clip0_5239_11793)">
<path d="M22.6714 3.81826C22.9247 3.8245 23.1767 3.77938 23.412 3.68564C23.6473 3.59191 23.861 3.45152 24.0402 3.27298C24.2194 3.09445 24.3603 2.8815 24.4544 2.64706C24.5484 2.41262 24.5937 2.16158 24.5875 1.90917C24.5693 1.4086 24.3616 0.933439 24.0062 0.579253C23.6507 0.225068 23.1738 0.018136 22.6714 8.01186e-05C22.4181 -0.00615503 22.1661 0.0389634 21.9308 0.132697C21.6955 0.226431 21.4818 0.366825 21.3026 0.545358C21.1234 0.723891 20.9825 0.936841 20.8884 1.17128C20.7944 1.40572 20.7491 1.65676 20.7553 1.90917C20.7422 2.16332 20.7828 2.41738 20.8745 2.65492C20.9661 2.89246 21.1068 3.10818 21.2874 3.28812C21.468 3.46807 21.6845 3.60824 21.9229 3.69956C22.1613 3.79088 22.4163 3.83132 22.6714 3.81826Z" fill="white"/>
<path d="M22.6717 10.909C21.4304 10.93 20.2115 11.2414 19.1133 11.8181C18.2215 12.2842 17.4669 12.9734 16.9235 13.8181C16.8322 13.9999 16.6498 14.1818 16.5585 14.3636C16.1914 15.0205 15.9152 15.7238 15.7374 16.4545H14.46C14.0919 14.6775 13.045 13.1128 11.5403 12.0908C12.4196 11.2845 13.0344 10.2326 13.3042 9.07258C13.574 7.9126 13.4864 6.6985 13.0528 5.58891C12.6192 4.47933 11.8597 3.52588 10.8736 2.85315C9.88756 2.18041 8.72075 1.81969 7.52568 1.81812C5.94217 1.83491 4.42967 2.47533 3.31848 3.59951C2.20729 4.72369 1.5877 6.2403 1.59502 7.81812V8.6363C1.58906 8.68565 1.59415 8.7357 1.60993 8.78286C1.6257 8.83002 1.65177 8.87311 1.68626 8.90902C1.7775 8.99993 1.68626 9.09084 1.7775 9.18175C1.86874 9.27266 1.86874 9.36357 1.86874 9.45448C1.86874 9.54539 1.86874 9.54539 1.95998 9.6363H5.06217C4.79602 9.3918 4.606 9.07625 4.51473 8.72721C4.43457 8.4312 4.40374 8.12408 4.42349 7.81812C4.42349 6.99836 4.75032 6.21217 5.3321 5.63251C5.91387 5.05285 6.70292 4.72721 7.52568 4.72721C8.34843 4.72721 9.13748 5.05285 9.71926 5.63251C10.301 6.21217 10.6279 6.99836 10.6279 7.81812C10.6269 8.47861 10.4019 9.11939 9.98918 9.6363C9.71735 10.036 9.34965 10.3618 8.91946 10.584C8.48926 10.8063 8.01018 10.918 7.52568 10.909V13.6363C8.52842 13.6346 9.49891 13.9892 10.2629 14.6363C10.7352 15.0447 11.117 15.5466 11.384 16.1101C11.651 16.6735 11.7975 17.2861 11.814 17.909C11.814 19.0422 11.3622 20.129 10.558 20.9303C9.75376 21.7316 8.66301 22.1818 7.52568 22.1818C6.38834 22.1818 5.29759 21.7316 4.49338 20.9303C3.68916 20.129 3.23736 19.0422 3.23736 17.909C3.22255 17.6631 3.25348 17.4165 3.3286 17.1818C3.33412 16.9576 3.39693 16.7386 3.51108 16.5454C3.60232 16.3636 3.69356 16.0908 3.7848 15.909C3.87604 15.7272 3.96728 15.6363 4.14976 15.4545C4.33225 15.2727 4.42349 15.1818 4.51473 14.9999H1.13882C0.932398 15.4028 0.779062 15.8306 0.682612 16.2727C0.527036 16.8345 0.465384 17.4181 0.50013 17.9999C0.50013 19.8564 1.24032 21.6369 2.55787 22.9497C3.87541 24.2624 5.66239 24.9999 7.52568 24.9999C9.15342 24.9895 10.7286 24.4248 11.9899 23.3996C13.2512 22.3744 14.1228 20.9502 14.46 19.3636H15.7374C16.008 20.6634 16.6426 21.8603 17.5677 22.8156C18.4928 23.7709 19.6706 24.4456 20.9647 24.7616C22.2588 25.0775 23.6162 25.0218 24.8798 24.6008C26.1434 24.1799 27.2614 23.4109 28.1045 22.383C28.9476 21.3551 29.4812 20.1102 29.6436 18.7926C29.806 17.475 29.5904 16.1385 29.022 14.9379C28.4535 13.7373 27.5553 12.7217 26.4314 12.0086C25.3076 11.2956 24.004 10.9144 22.6717 10.909ZM22.6717 22.2727C22.1082 22.2739 21.55 22.1642 21.0292 21.9499C20.5083 21.7356 20.0351 21.4209 19.6367 21.0239C19.2382 20.6269 18.9224 20.1554 18.7073 19.6365C18.4922 19.1175 18.3821 18.5614 18.3833 17.9999C18.3937 17.3089 18.5491 16.6276 18.8395 15.9999C18.9308 15.8181 19.1133 15.6363 19.2045 15.4545C19.6076 14.9465 20.1205 14.5356 20.705 14.2523C21.2894 13.969 21.9305 13.8206 22.5804 13.8181C23.7057 13.8061 24.7896 14.2399 25.5938 15.0241C26.398 15.8084 26.8566 16.8788 26.8687 17.9999C26.8808 19.1211 26.4454 20.2011 25.6583 21.0024C24.8712 21.8037 23.7969 22.2606 22.6717 22.2727Z" fill="white"/>
<path d="M22.6715 6.18191C22.1081 6.18311 21.5499 6.07341 21.0291 5.85911C20.5082 5.64481 20.035 5.33013 19.6366 4.93313C19.2381 4.53613 18.9223 4.06463 18.7072 3.5457C18.4921 3.02677 18.382 2.47062 18.3832 1.90918H15.646C15.646 2.82843 15.8277 3.73868 16.1808 4.58796C16.5338 5.43724 17.0513 6.20892 17.7037 6.85893C18.3561 7.50894 19.1306 8.02455 19.983 8.37634C20.8354 8.72812 21.7489 8.90918 22.6715 8.90918C23.5942 8.90918 24.5077 8.72812 25.3601 8.37634C26.2125 8.02455 26.987 7.50894 27.6394 6.85893C28.2917 6.20892 28.8092 5.43724 29.1623 4.58796C29.5154 3.73868 29.6971 2.82843 29.6971 1.90918H26.9599C26.9299 3.03296 26.4685 4.10248 25.6707 4.89739C24.8728 5.6923 23.7994 6.15205 22.6715 6.18191Z" fill="white"/>
<path d="M43.1094 8.27264C42.7049 7.8111 42.2075 7.43943 41.6496 7.18173C41.048 6.91357 40.3919 6.78906 39.7335 6.81809C39.0765 6.8063 38.4241 6.93011 37.8175 7.18173C37.2595 7.43943 36.7621 7.8111 36.3576 8.27264C35.9288 8.77394 35.6171 9.36391 35.4452 9.99991C35.2132 10.7358 35.0903 11.5014 35.0802 12.2726V12.8181C35.0602 13.5916 35.1839 14.3622 35.4452 15.0908C35.6536 15.7307 35.9956 16.3194 36.4488 16.8181C36.8719 17.2593 37.3652 17.6279 37.9087 17.909C38.5103 18.1772 39.1664 18.3017 39.8248 18.2726C40.4825 18.2928 41.1366 18.1687 41.7408 17.909C42.2988 17.6513 42.7961 17.2796 43.2007 16.8181C43.6295 16.3168 43.9411 15.7268 44.1131 15.0908C44.3376 14.3532 44.4604 13.5886 44.478 12.8181V12.2726C44.4981 11.4991 44.3744 10.7286 44.1131 9.99991C43.9111 9.35718 43.5683 8.7672 43.1094 8.27264ZM42.2883 12.8181C42.2836 13.3383 42.2224 13.8565 42.1058 14.3635C42.0098 14.7768 41.8562 15.1746 41.6496 15.5454C41.4436 15.8545 41.1606 16.105 40.8284 16.2726C40.4986 16.4695 40.1175 16.5644 39.7335 16.5454C39.3508 16.5522 38.9731 16.4581 38.6386 16.2726C38.3217 16.0835 38.0432 15.8368 37.8175 15.5454C37.5958 15.1817 37.4413 14.7815 37.3613 14.3635C37.2502 13.8555 37.1891 13.3379 37.1788 12.8181V12.2726C37.1835 11.7524 37.2446 11.2343 37.3613 10.7272C37.4572 10.314 37.6108 9.91617 37.8175 9.54536C38.0235 9.23627 38.3064 8.98569 38.6386 8.81809C38.9685 8.62127 39.3495 8.52636 39.7335 8.54536C40.1149 8.54929 40.49 8.64272 40.8284 8.81809C41.1453 9.00726 41.4239 9.25394 41.6496 9.54536C41.8712 9.90901 42.0257 10.3093 42.1058 10.7272C42.2168 11.2352 42.2779 11.7528 42.2883 12.2726V12.8181Z" fill="white"/>
<path d="M56.6134 7H55.6097L52.5988 15.2727L49.5878 7H48.6754H47.763H46.8506V18H48.9491V14.6364L48.7666 9.54545L51.8688 18H53.3287L56.4309 9.63636L56.2484 14.6364V18H58.3469V7H57.4345H56.6134Z" fill="white"/>
<path d="M70.8468 7H69.9344L66.9235 15.2727L63.9125 7H62.9089H62.0877H61.1753V18H63.2738V14.6364L63.0001 9.54545L66.1935 18H67.5622L70.7556 9.63636L70.5731 14.6364V18H72.5804V7H71.668H70.8468Z" fill="white"/>
<path d="M80.1531 7H78.6932L74.5874 18H76.7772L77.5984 15.5455H81.7042L82.5254 18H84.7151L80.6093 7H80.1531ZM78.1458 13.9091L79.6057 9.45455L81.1567 13.9091H78.1458Z" fill="white"/>
<path d="M93.3832 14.6364L88.7299 7H86.6313V18H88.7299V10.3636L93.3832 18H95.4817V7H93.3832V14.6364Z" fill="white"/>
<path d="M100.5 7H98.4014V18H100.5V7Z" fill="white"/>
</g>
<defs>
<clipPath id="clip0_5239_11793">
<rect width="100" height="25" fill="white" transform="translate(0.5)"/>
</clipPath>
</defs>
</svg>
